# xmcd
#
# Track frame offsets:
#	150
#	20165
#	40338
#	99095
#	125505
#	154301
#	180948
#	198845
#	246836
#
# Disc length: 3542 seconds
#
# Revision: 1
# Processed by: cddbd v1.5.1PL0 Copyright (c) Steve Scherf et al.
# Submitted via: audiograbber 1.83.01
#
DISCID=6d0dd409
DTITLE=Kenny Wayne Shepherd - 1998-06-20 - Live at BB King's Beale St,Memphis, 
DTITLE=TN - FM
DYEAR=1900
DGENRE=
TTITLE0=Kenny Wayne Shepherd - Instrumental
TTITLE1=Kenny Wayne Shepherd - Born With A Broken Heart
TTITLE2=Kenny Wayne Shepherd - Shame shame shame
TTITLE3=Kenny Wayne Shepherd - True Lies
TTITLE4=Kenny Wayne Shepherd - Blue On Black
TTITLE5=Kenny Wayne Shepherd - Nothin' To Do With Love
TTITLE6=Kenny Wayne Shepherd - Slow Ride
TTITLE7=Kenny Wayne Shepherd - Band Intro-Deja Voodoo
TTITLE8=Kenny Wayne Shepherd - Everything Is Broken
EXTD=
EXTT0=
EXTT1=
EXTT2=
EXTT3=
EXTT4=
EXTT5=
EXTT6=
EXTT7=
EXTT8=
PLAYORDER=
